<?xml version="1.0" encoding="UTF-8" standalone="no"?>
<!DOCTYPE svg PUBLIC "-//W3C//DTD SVG 1.1//EN"
 "http://www.w3.org/Graphics/SVG/1.1/DTD/svg11.dtd">
<!-- Generated by graphviz version 8.1.0 (20230707.0739)
 -->
<!-- Title: G Pages: 1 -->
<svg width="651pt" height="294pt"
 viewBox="0.00 0.00 650.70 293.75" xmlns="http://www.w3.org/2000/svg" xmlns:xlink="http://www.w3.org/1999/xlink">
<g id="graph0" class="graph" transform="scale(1 1) rotate(0) translate(4 289.75)">
<title>G</title>
<polygon fill="white" stroke="none" points="-4,4 -4,-289.75 646.7,-289.75 646.7,4 -4,4"/>
<!-- n1 -->
<g id="node1" class="node">
<title>n1</title>
<g id="a_node1"><a xlink:href="provinspector:PipelineChange" xlink:title="PipelineChange">
<polygon fill="#9fb1fc" stroke="#0000ff" points="190.32,-202.5 88.82,-202.5 88.82,-166.5 190.32,-166.5 190.32,-202.5"/>
<text text-anchor="middle" x="139.57" y="-179.45" font-family="Times,serif" font-size="14.00">PipelineChange</text>
</a>
</g>
</g>
<!-- n2 -->
<g id="node2" class="node">
<title>n2</title>
<g id="a_node2"><a xlink:href="provinspector:ParentPipelineChange" xlink:title="ParentPipelineChange">
<polygon fill="#9fb1fc" stroke="#0000ff" points="207.57,-285.75 71.57,-285.75 71.57,-249.75 207.57,-249.75 207.57,-285.75"/>
<text text-anchor="middle" x="139.57" y="-262.7" font-family="Times,serif" font-size="14.00">ParentPipelineChange</text>
</a>
</g>
</g>
<!-- n1&#45;&gt;n2 -->
<g id="edge1" class="edge">
<title>n1&#45;&gt;n2</title>
<path fill="none" stroke="black" d="M139.57,-202.73C139.57,-213.11 139.57,-226.58 139.57,-238.48"/>
<polygon fill="black" stroke="black" points="136.07,-238.26 139.57,-248.26 143.07,-238.26 136.07,-238.26"/>
<text text-anchor="middle" x="171.82" y="-222.25" font-family="Times,serif" font-size="10.00">wasInformedBy</text>
</g>
<!-- n7 -->
<g id="node7" class="node">
<title>n7</title>
<g id="a_node7"><a xlink:href="provinspector:ParentPipelineVersionRevision" xlink:title="ParentPipelineVersionRevision">
<ellipse fill="#fffc87" stroke="#808080" cx="445.57" cy="-267.75" rx="125.56" ry="18"/>
<text text-anchor="middle" x="445.57" y="-262.7" font-family="Times,serif" font-size="14.00">ParentPipelineVersionRevision</text>
</a>
</g>
</g>
<!-- n1&#45;&gt;n7 -->
<g id="edge10" class="edge">
<title>n1&#45;&gt;n7</title>
<path fill="none" stroke="#8b0000" d="M190.79,-199.1C241.86,-212.66 320.61,-233.57 377.04,-248.55"/>
<polygon fill="#8b0000" stroke="#8b0000" points="376.09,-252.19 386.66,-251.37 377.89,-245.42 376.09,-252.19"/>
<text text-anchor="middle" x="320.95" y="-222.25" font-family="Times,serif" font-size="10.00" fill="red">used</text>
</g>
<!-- n3 -->
<g id="node3" class="node">
<title>n3</title>
<g id="a_node3"><a xlink:href="provinspector:Connection" xlink:title="Connection">
<ellipse fill="#fffc87" stroke="#808080" cx="139.57" cy="-101.25" rx="53.4" ry="18"/>
<text text-anchor="middle" x="139.57" y="-96.2" font-family="Times,serif" font-size="14.00">Connection</text>
</a>
</g>
</g>
<!-- n3&#45;&gt;n1 -->
<g id="edge2" class="edge">
<title>n3&#45;&gt;n1</title>
<path fill="none" stroke="black" d="M139.57,-119.48C139.57,-129.86 139.57,-143.33 139.57,-155.23"/>
<polygon fill="black" stroke="black" points="136.07,-155.01 139.57,-165.01 143.07,-155.01 136.07,-155.01"/>
<text text-anchor="middle" x="176.7" y="-139" font-family="Times,serif" font-size="10.00">wasInvalidatedBy</text>
</g>
<!-- n4 -->
<g id="node4" class="node">
<title>n4</title>
<g id="a_node4"><a xlink:href="provinspector:PipelineVersionRevision" xlink:title="PipelineVersionRevision">
<ellipse fill="#fffc87" stroke="#808080" cx="287.57" cy="-18" rx="102.02" ry="18"/>
<text text-anchor="middle" x="287.57" y="-12.95" font-family="Times,serif" font-size="14.00">PipelineVersionRevision</text>
</a>
</g>
</g>
<!-- n4&#45;&gt;n1 -->
<g id="edge5" class="edge">
<title>n4&#45;&gt;n1</title>
<path fill="none" stroke="darkgreen" d="M199.33,-27.39C126.54,-36.36 31.53,-53.48 7.82,-83.25 -19.37,-117.39 32.06,-146.3 78.4,-164.18"/>
<polygon fill="darkgreen" stroke="darkgreen" points="76.89,-167.72 87.49,-167.93 79.34,-161.16 76.89,-167.72"/>
<text text-anchor="middle" x="43.45" y="-97.38" font-family="Times,serif" font-size="10.00" fill="darkgreen">wasGeneratedBy</text>
</g>
<!-- n4&#45;&gt;n3 -->
<g id="edge4" class="edge">
<title>n4&#45;&gt;n3</title>
<path fill="none" stroke="black" d="M257.26,-35.64C233.67,-48.59 200.85,-66.61 175.86,-80.33"/>
<polygon fill="black" stroke="black" points="174.44,-77.66 167.36,-85.54 177.81,-83.8 174.44,-77.66"/>
<text text-anchor="middle" x="246.95" y="-55.75" font-family="Times,serif" font-size="10.00">hadMember</text>
</g>
<!-- n5 -->
<g id="node5" class="node">
<title>n5</title>
<g id="a_node5"><a xlink:href="provinspector:OperatorRevision" xlink:title="OperatorRevision">
<ellipse fill="#fffc87" stroke="#808080" cx="287.57" cy="-101.25" rx="76.43" ry="18"/>
<text text-anchor="middle" x="287.57" y="-96.2" font-family="Times,serif" font-size="14.00">OperatorRevision</text>
</a>
</g>
</g>
<!-- n4&#45;&gt;n5 -->
<g id="edge3" class="edge">
<title>n4&#45;&gt;n5</title>
<path fill="none" stroke="black" d="M287.57,-36.23C287.57,-46.61 287.57,-60.08 287.57,-71.98"/>
<polygon fill="black" stroke="black" points="284.07,-71.76 287.57,-81.76 291.07,-71.76 284.07,-71.76"/>
<text text-anchor="middle" x="311.95" y="-55.75" font-family="Times,serif" font-size="10.00">hadMember</text>
</g>
<!-- n6 -->
<g id="node6" class="node">
<title>n6</title>
<g id="a_node6"><a xlink:href="provinspector:PipelineVersion" xlink:title="PipelineVersion">
<ellipse fill="#fffc87" stroke="#808080" cx="451.57" cy="-101.25" rx="69.26" ry="18"/>
<text text-anchor="middle" x="451.57" y="-96.2" font-family="Times,serif" font-size="14.00">PipelineVersion</text>
</a>
</g>
</g>
<!-- n4&#45;&gt;n6 -->
<g id="edge6" class="edge">
<title>n4&#45;&gt;n6</title>
<path fill="none" stroke="black" d="M320.76,-35.44C346.68,-48.29 382.84,-66.2 410.58,-79.94"/>
<polygon fill="black" stroke="black" points="408.86,-83.49 419.38,-84.8 411.97,-77.22 408.86,-83.49"/>
<text text-anchor="middle" x="413.32" y="-55.75" font-family="Times,serif" font-size="10.00">specializationOf</text>
</g>
<!-- b1 -->
<g id="node8" class="node">
<title>b1</title>
<ellipse fill="gray" stroke="gray" cx="540.57" cy="-101.25" rx="1.8" ry="1.8"/>
</g>
<!-- n4&#45;&gt;b1 -->
<g id="edge7" class="edge">
<title>n4&#45;&gt;b1</title>
<path fill="none" stroke="black" d="M356.72,-31.57C385.92,-37.47 420.14,-45.15 450.57,-54 468.55,-59.23 514.96,-71.54 529.57,-83.25 535.28,-87.82 538.97,-96.19 540.16,-99.16"/>
<text text-anchor="middle" x="522.45" y="-55.75" font-family="Times,serif" font-size="10.00">wasDerivedFrom</text>
</g>
<!-- b1&#45;&gt;n7 -->
<g id="edge8" class="edge">
<title>b1&#45;&gt;n7</title>
<path fill="none" stroke="black" d="M539.96,-103.3C534.04,-113.56 486.21,-196.39 461,-240.04"/>
<polygon fill="black" stroke="black" points="457.52,-238.07 455.55,-248.48 463.58,-241.57 457.52,-238.07"/>
</g>
<!-- ann1 -->
<g id="node9" class="node">
<title>ann1</title>
<polygon fill="none" stroke="gray" points="636.7,-36 522.45,-36 522.45,0 642.7,0 642.7,-30 636.7,-36"/>
<polyline fill="none" stroke="gray" points="636.7,-36 636.7,-30"/>
<polyline fill="none" stroke="gray" points="642.7,-30 636.7,-30"/>
<g id="a_node9_0"><a xlink:href="http://www.w3.org/ns/prov#type" xlink:title="&lt;TABLE&gt;">
<text text-anchor="start" x="532.45" y="-14.12" font-family="Times,serif" font-size="10.00">prov:type</text>
</a>
</g>
<g id="a_node9_1"><a xlink:href="http://www.w3.org/ns/prov#Revision" xlink:title="&lt;TABLE&gt;">
<text text-anchor="start" x="574.2" y="-14.12" font-family="Times,serif" font-size="10.00">prov:Revision</text>
</a>
</g>
</g>
<!-- ann1&#45;&gt;b1 -->
<g id="edge9" class="edge">
<title>ann1&#45;&gt;b1</title>
<path fill="none" stroke="gray" stroke-dasharray="5,2" d="M579,-36.3C576.74,-45.26 573.34,-56.19 568.57,-65.25 560.6,-80.4 545.65,-95.36 541.6,-99.27"/>
</g>
</g>
</svg>
