<?xml version="1.0" encoding="UTF-8" standalone="no"?>
<!DOCTYPE svg PUBLIC "-//W3C//DTD SVG 1.1//EN"
 "http://www.w3.org/Graphics/SVG/1.1/DTD/svg11.dtd">
<!-- Generated by graphviz version 8.1.0 (20230707.0739)
 -->
<!-- Title: G Pages: 1 -->
<svg width="979pt" height="544pt"
 viewBox="0.00 0.00 978.93 543.50" xmlns="http://www.w3.org/2000/svg" xmlns:xlink="http://www.w3.org/1999/xlink">
<g id="graph0" class="graph" transform="scale(1 1) rotate(0) translate(4 539.5)">
<title>G</title>
<polygon fill="white" stroke="none" points="-4,4 -4,-539.5 974.93,-539.5 974.93,4 -4,4"/>
<!-- n1 -->
<g id="node1" class="node">
<title>n1</title>
<g id="a_node1"><a xlink:href="provinspector:PipelineVersionCreation" xlink:title="PipelineVersionCreation">
<polygon fill="#9fb1fc" stroke="#0000ff" points="266.81,-202.5 118.81,-202.5 118.81,-166.5 266.81,-166.5 266.81,-202.5"/>
<text text-anchor="middle" x="192.81" y="-179.45" font-family="Times,serif" font-size="14.00">PipelineVersionCreation</text>
</a>
</g>
</g>
<!-- n2 -->
<g id="node2" class="node">
<title>n2</title>
<g id="a_node2"><a xlink:href="provinspector:ParentPipelineVersionCreation" xlink:title="ParentPipelineVersionCreation">
<polygon fill="#9fb1fc" stroke="#0000ff" points="264.06,-452.25 81.56,-452.25 81.56,-416.25 264.06,-416.25 264.06,-452.25"/>
<text text-anchor="middle" x="172.81" y="-429.2" font-family="Times,serif" font-size="14.00">ParentPipelineVersionCreation</text>
</a>
</g>
</g>
<!-- n1&#45;&gt;n2 -->
<g id="edge1" class="edge">
<title>n1&#45;&gt;n2</title>
<path fill="none" stroke="black" d="M197.66,-202.96C207.09,-240.14 224.97,-329.37 200.81,-398.25 199.77,-401.21 198.36,-404.11 196.73,-406.88"/>
<polygon fill="black" stroke="black" points="193.37,-404.59 190.52,-414.8 199.11,-408.6 193.37,-404.59"/>
<text text-anchor="middle" x="246.06" y="-305.5" font-family="Times,serif" font-size="10.00">wasInformedBy</text>
</g>
<!-- n6 -->
<g id="node6" class="node">
<title>n6</title>
<g id="a_node6"><a xlink:href="provinspector:ParentPipelineVersionRevision" xlink:title="ParentPipelineVersionRevision">
<ellipse fill="#fffc87" stroke="#808080" cx="448.81" cy="-267.75" rx="125.56" ry="18"/>
<text text-anchor="middle" x="448.81" y="-262.7" font-family="Times,serif" font-size="14.00">ParentPipelineVersionRevision</text>
</a>
</g>
</g>
<!-- n1&#45;&gt;n6 -->
<g id="edge8" class="edge">
<title>n1&#45;&gt;n6</title>
<path fill="none" stroke="#8b0000" d="M210.92,-202.81C222.4,-212.81 238.07,-224.76 254.06,-231.75 279.06,-242.69 307.31,-250.21 334.37,-255.38"/>
<polygon fill="#8b0000" stroke="#8b0000" points="333.61,-258.98 344.08,-257.31 334.86,-252.09 333.61,-258.98"/>
<text text-anchor="middle" x="264.18" y="-222.25" font-family="Times,serif" font-size="10.00" fill="red">used</text>
</g>
<!-- n8 -->
<g id="node8" class="node">
<title>n8</title>
<g id="a_node8"><a xlink:href="provinspector:ParentPipelineVersion" xlink:title="ParentPipelineVersion">
<ellipse fill="#fffc87" stroke="#808080" cx="92.81" cy="-351" rx="92.81" ry="18"/>
<text text-anchor="middle" x="92.81" y="-345.95" font-family="Times,serif" font-size="14.00">ParentPipelineVersion</text>
</a>
</g>
</g>
<!-- n1&#45;&gt;n8 -->
<g id="edge16" class="edge">
<title>n1&#45;&gt;n8</title>
<path fill="none" stroke="#8b0000" d="M178.01,-202.9C159.74,-225.1 128.63,-265.24 108.81,-303.75 105.77,-309.65 103.09,-316.26 100.84,-322.6"/>
<polygon fill="#8b0000" stroke="#8b0000" points="97.28,-321.23 97.47,-331.83 103.93,-323.43 97.28,-321.23"/>
<text text-anchor="middle" x="151.18" y="-263.88" font-family="Times,serif" font-size="10.00" fill="red">used</text>
</g>
<!-- n3 -->
<g id="node3" class="node">
<title>n3</title>
<g id="a_node3"><a xlink:href="provinspector:PipelineVersionRevision" xlink:title="PipelineVersionRevision">
<ellipse fill="#fffc87" stroke="#808080" cx="389.81" cy="-18" rx="102.02" ry="18"/>
<text text-anchor="middle" x="389.81" y="-12.95" font-family="Times,serif" font-size="14.00">PipelineVersionRevision</text>
</a>
</g>
</g>
<!-- n3&#45;&gt;n1 -->
<g id="edge4" class="edge">
<title>n3&#45;&gt;n1</title>
<path fill="none" stroke="darkgreen" d="M308.48,-29.1C273.3,-37.72 234.81,-53.69 211.06,-83.25 194.81,-103.47 191.19,-133.42 191.06,-155.32"/>
<polygon fill="darkgreen" stroke="darkgreen" points="187.58,-155.31 191.27,-165.24 194.58,-155.18 187.58,-155.31"/>
<text text-anchor="middle" x="246.68" y="-97.38" font-family="Times,serif" font-size="10.00" fill="darkgreen">wasGeneratedBy</text>
</g>
<!-- n4 -->
<g id="node4" class="node">
<title>n4</title>
<g id="a_node4"><a xlink:href="provinspector:OperatorRevision" xlink:title="OperatorRevision">
<ellipse fill="#fffc87" stroke="#808080" cx="625.81" cy="-351" rx="76.43" ry="18"/>
<text text-anchor="middle" x="625.81" y="-345.95" font-family="Times,serif" font-size="14.00">OperatorRevision</text>
</a>
</g>
</g>
<!-- n3&#45;&gt;n4 -->
<g id="edge2" class="edge">
<title>n3&#45;&gt;n4</title>
<path fill="none" stroke="black" d="M478.84,-26.96C511.28,-32.04 547.62,-40.37 578.81,-54 610.31,-67.77 640.81,-65.87 640.81,-100.25 640.81,-100.25 640.81,-100.25 640.81,-268.75 640.81,-286.76 637.2,-306.64 633.52,-322.23"/>
<polygon fill="black" stroke="black" points="629.93,-321.18 630.89,-331.74 636.72,-322.89 629.93,-321.18"/>
<text text-anchor="middle" x="665.18" y="-180.62" font-family="Times,serif" font-size="10.00">hadMember</text>
</g>
<!-- n5 -->
<g id="node5" class="node">
<title>n5</title>
<g id="a_node5"><a xlink:href="provinspector:Connection" xlink:title="Connection">
<ellipse fill="#fffc87" stroke="#808080" cx="464.81" cy="-351" rx="53.4" ry="18"/>
<text text-anchor="middle" x="464.81" y="-345.95" font-family="Times,serif" font-size="14.00">Connection</text>
</a>
</g>
</g>
<!-- n3&#45;&gt;n5 -->
<g id="edge3" class="edge">
<title>n3&#45;&gt;n5</title>
<path fill="none" stroke="black" d="M410.9,-36.02C452.5,-70.99 544.47,-155.58 583.81,-249.75 595.02,-276.59 606.36,-291.81 588.81,-315 584.28,-320.99 550.36,-330.33 519.15,-337.85"/>
<polygon fill="black" stroke="black" points="518.64,-334.62 509.71,-340.33 520.25,-341.43 518.64,-334.62"/>
<text text-anchor="middle" x="582.18" y="-180.62" font-family="Times,serif" font-size="10.00">hadMember</text>
</g>
<!-- n7 -->
<g id="node7" class="node">
<title>n7</title>
<g id="a_node7"><a xlink:href="provinspector:PipelineVersion" xlink:title="PipelineVersion">
<ellipse fill="#fffc87" stroke="#808080" cx="91.81" cy="-101.25" rx="69.26" ry="18"/>
<text text-anchor="middle" x="91.81" y="-96.2" font-family="Times,serif" font-size="14.00">PipelineVersion</text>
</a>
</g>
</g>
<!-- n3&#45;&gt;n7 -->
<g id="edge11" class="edge">
<title>n3&#45;&gt;n7</title>
<path fill="none" stroke="black" d="M289.8,-22.05C223.17,-25.89 142.95,-34.53 115.31,-54 108.63,-58.71 103.73,-65.89 100.19,-73.2"/>
<polygon fill="black" stroke="black" points="96.72,-71.45 96.17,-82.03 103.19,-74.1 96.72,-71.45"/>
<text text-anchor="middle" x="149.56" y="-55.75" font-family="Times,serif" font-size="10.00">specializationOf</text>
</g>
<!-- n9 -->
<g id="node9" class="node">
<title>n9</title>
<g id="a_node9"><a xlink:href="provinspector:PipelineChange" xlink:title="PipelineChange">
<polygon fill="#9fb1fc" stroke="#0000ff" points="424.56,-452.25 323.06,-452.25 323.06,-416.25 424.56,-416.25 424.56,-452.25"/>
<text text-anchor="middle" x="373.81" y="-429.2" font-family="Times,serif" font-size="14.00">PipelineChange</text>
</a>
</g>
</g>
<!-- n3&#45;&gt;n9 -->
<g id="edge25" class="edge">
<title>n3&#45;&gt;n9</title>
<path fill="none" stroke="darkgreen" d="M349.52,-34.93C323.63,-48.11 294.81,-69.65 294.81,-100.25 294.81,-100.25 294.81,-100.25 294.81,-352 294.81,-376.12 312.92,-395.77 331.8,-409.7"/>
<polygon fill="darkgreen" stroke="darkgreen" points="329.54,-413.08 339.76,-415.88 333.52,-407.32 329.54,-413.08"/>
<text text-anchor="middle" x="329.68" y="-222.25" font-family="Times,serif" font-size="10.00" fill="darkgreen">wasGeneratedBy</text>
</g>
<!-- b1 -->
<g id="node17" class="node">
<title>b1</title>
<ellipse fill="gray" stroke="gray" cx="517.81" cy="-101.25" rx="1.8" ry="1.8"/>
</g>
<!-- n3&#45;&gt;b1 -->
<g id="edge5" class="edge">
<title>n3&#45;&gt;b1</title>
<path fill="none" stroke="black" d="M456.39,-31.93C470.57,-37.03 484.62,-44.13 495.81,-54 511.28,-67.65 516.78,-94.54 517.67,-99.47"/>
<text text-anchor="middle" x="539.68" y="-55.75" font-family="Times,serif" font-size="10.00">wasDerivedFrom</text>
</g>
<!-- n4&#45;&gt;n9 -->
<g id="edge18" class="edge">
<title>n4&#45;&gt;n9</title>
<path fill="none" stroke="darkgreen" d="M565.52,-362.37C511.93,-371.7 441.13,-384.33 435.06,-387 422.7,-392.43 410.53,-400.81 400.33,-408.95"/>
<polygon fill="darkgreen" stroke="darkgreen" points="398.36,-406.87 392.93,-415.96 402.85,-412.24 398.36,-406.87"/>
<text text-anchor="middle" x="470.68" y="-388.75" font-family="Times,serif" font-size="10.00" fill="darkgreen">wasGeneratedBy</text>
</g>
<!-- n12 -->
<g id="node12" class="node">
<title>n12</title>
<g id="a_node12"><a xlink:href="provinspector:Operator" xlink:title="Operator">
<ellipse fill="#fffc87" stroke="#808080" cx="485.81" cy="-434.25" rx="43.67" ry="18"/>
<text text-anchor="middle" x="485.81" y="-429.2" font-family="Times,serif" font-size="14.00">Operator</text>
</a>
</g>
</g>
<!-- n4&#45;&gt;n12 -->
<g id="edge23" class="edge">
<title>n4&#45;&gt;n12</title>
<path fill="none" stroke="black" d="M569.93,-363.64C552.96,-368.93 534.94,-376.44 520.31,-387 512.88,-392.36 506.36,-399.79 501.05,-407.12"/>
<polygon fill="black" stroke="black" points="497.62,-404.95 494.98,-415.21 503.44,-408.83 497.62,-404.95"/>
<text text-anchor="middle" x="554.56" y="-388.75" font-family="Times,serif" font-size="10.00">specializationOf</text>
</g>
<!-- n13 -->
<g id="node13" class="node">
<title>n13</title>
<g id="a_node13"><a xlink:href="provinspector:Parameter" xlink:title="Parameter">
<ellipse fill="#fffc87" stroke="#808080" cx="595.81" cy="-434.25" rx="48.79" ry="18"/>
<text text-anchor="middle" x="595.81" y="-429.2" font-family="Times,serif" font-size="14.00">Parameter</text>
</a>
</g>
</g>
<!-- n4&#45;&gt;n13 -->
<g id="edge24" class="edge">
<title>n4&#45;&gt;n13</title>
<path fill="none" stroke="black" d="M606.7,-368.83C601.99,-374.12 597.57,-380.34 595.06,-387 592.9,-392.73 592.09,-399.15 592.02,-405.34"/>
<polygon fill="black" stroke="black" points="588.56,-405.23 592.57,-415.04 595.56,-404.87 588.56,-405.23"/>
<text text-anchor="middle" x="619.18" y="-388.75" font-family="Times,serif" font-size="10.00">hadMember</text>
</g>
<!-- n16 -->
<g id="node16" class="node">
<title>n16</title>
<g id="a_node16"><a xlink:href="provinspector:Metric" xlink:title="Metric">
<ellipse fill="#fffc87" stroke="#808080" cx="698.81" cy="-434.25" rx="36" ry="18"/>
<text text-anchor="middle" x="698.81" y="-429.2" font-family="Times,serif" font-size="14.00">Metric</text>
</a>
</g>
</g>
<!-- n4&#45;&gt;n16 -->
<g id="edge30" class="edge">
<title>n4&#45;&gt;n16</title>
<path fill="none" stroke="black" d="M640.67,-368.73C648.5,-377.53 658.28,-388.49 667.06,-398.25 670.36,-401.92 673.86,-405.79 677.28,-409.58"/>
<polygon fill="black" stroke="black" points="674.24,-411.54 683.56,-416.59 679.43,-406.84 674.24,-411.54"/>
<text text-anchor="middle" x="691.18" y="-388.75" font-family="Times,serif" font-size="10.00">hadMember</text>
</g>
<!-- b2 -->
<g id="node19" class="node">
<title>b2</title>
<ellipse fill="gray" stroke="gray" cx="754.81" cy="-434.25" rx="1.8" ry="1.8"/>
</g>
<!-- n4&#45;&gt;b2 -->
<g id="edge19" class="edge">
<title>n4&#45;&gt;b2</title>
<path fill="none" stroke="black" d="M672.11,-365.62C686.76,-371.05 702.57,-378.15 715.81,-387 736.07,-400.54 751.64,-427.52 754.38,-432.46"/>
<text text-anchor="middle" x="762.68" y="-388.75" font-family="Times,serif" font-size="10.00">wasDerivedFrom</text>
</g>
<!-- n6&#45;&gt;n4 -->
<g id="edge9" class="edge">
<title>n6&#45;&gt;n4</title>
<path fill="none" stroke="black" d="M485.05,-285.39C513.22,-298.32 552.4,-316.3 582.27,-330.01"/>
<polygon fill="black" stroke="black" points="580.46,-333.49 591.01,-334.49 583.38,-327.13 580.46,-333.49"/>
<text text-anchor="middle" x="573.18" y="-305.5" font-family="Times,serif" font-size="10.00">hadMember</text>
</g>
<!-- n6&#45;&gt;n5 -->
<g id="edge10" class="edge">
<title>n6&#45;&gt;n5</title>
<path fill="none" stroke="black" d="M452.2,-285.98C454.28,-296.54 456.99,-310.29 459.36,-322.34"/>
<polygon fill="black" stroke="black" points="456.05,-322.66 461.42,-331.79 462.92,-321.31 456.05,-322.66"/>
<text text-anchor="middle" x="482.18" y="-305.5" font-family="Times,serif" font-size="10.00">hadMember</text>
</g>
<!-- n6&#45;&gt;n8 -->
<g id="edge14" class="edge">
<title>n6&#45;&gt;n8</title>
<path fill="none" stroke="black" d="M325.69,-271.66C248.94,-275.45 158.64,-284.09 125.31,-303.75 117.46,-308.38 111.03,-315.73 106.03,-323.22"/>
<polygon fill="black" stroke="black" points="102.56,-321.21 100.44,-331.59 108.57,-324.79 102.56,-321.21"/>
<text text-anchor="middle" x="159.56" y="-305.5" font-family="Times,serif" font-size="10.00">specializationOf</text>
</g>
<!-- n7&#45;&gt;n1 -->
<g id="edge12" class="edge">
<title>n7&#45;&gt;n1</title>
<path fill="none" stroke="darkgreen" d="M96.38,-119.43C99.68,-129.01 104.99,-140.57 113.06,-148.5 117.8,-153.16 123.26,-157.25 129.06,-160.83"/>
<polygon fill="darkgreen" stroke="darkgreen" points="126.96,-164.23 137.4,-166.05 130.38,-158.12 126.96,-164.23"/>
<text text-anchor="middle" x="148.68" y="-139" font-family="Times,serif" font-size="10.00" fill="darkgreen">wasGeneratedBy</text>
</g>
<!-- n7&#45;&gt;n8 -->
<g id="edge15" class="edge">
<title>n7&#45;&gt;n8</title>
<path fill="none" stroke="black" d="M89.46,-119.41C86.34,-144.19 81.4,-191.45 83.06,-231.75 84.33,-262.7 87.47,-298.1 89.85,-322.03"/>
<polygon fill="black" stroke="black" points="86.45,-322.2 90.94,-331.79 93.41,-321.49 86.45,-322.2"/>
<text text-anchor="middle" x="118.68" y="-222.25" font-family="Times,serif" font-size="10.00">wasDerivedFrom</text>
</g>
<!-- n8&#45;&gt;n2 -->
<g id="edge13" class="edge">
<title>n8&#45;&gt;n2</title>
<path fill="none" stroke="darkgreen" d="M105.57,-368.9C112.69,-377.95 121.95,-389.08 131.06,-398.25 134.53,-401.74 138.31,-405.26 142.14,-408.65"/>
<polygon fill="darkgreen" stroke="darkgreen" points="139.61,-411.95 149.48,-415.8 144.17,-406.64 139.61,-411.95"/>
<text text-anchor="middle" x="166.68" y="-388.75" font-family="Times,serif" font-size="10.00" fill="darkgreen">wasGeneratedBy</text>
</g>
<!-- n9&#45;&gt;n6 -->
<g id="edge26" class="edge">
<title>n9&#45;&gt;n6</title>
<path fill="none" stroke="#8b0000" d="M372.16,-416C370.93,-395.24 371.24,-359.84 384.06,-333 391.43,-317.56 404.12,-303.7 416.32,-292.85"/>
<polygon fill="#8b0000" stroke="#8b0000" points="418.24,-294.96 423.62,-285.83 413.72,-289.62 418.24,-294.96"/>
<text text-anchor="middle" x="394.18" y="-347.12" font-family="Times,serif" font-size="10.00" fill="red">used</text>
</g>
<!-- n10 -->
<g id="node10" class="node">
<title>n10</title>
<g id="a_node10"><a xlink:href="provinspector:ParentPipelineChange" xlink:title="ParentPipelineChange">
<polygon fill="#9fb1fc" stroke="#0000ff" points="441.81,-535.5 305.81,-535.5 305.81,-499.5 441.81,-499.5 441.81,-535.5"/>
<text text-anchor="middle" x="373.81" y="-512.45" font-family="Times,serif" font-size="14.00">ParentPipelineChange</text>
</a>
</g>
</g>
<!-- n9&#45;&gt;n10 -->
<g id="edge17" class="edge">
<title>n9&#45;&gt;n10</title>
<path fill="none" stroke="black" d="M373.81,-452.48C373.81,-462.86 373.81,-476.33 373.81,-488.23"/>
<polygon fill="black" stroke="black" points="370.31,-488.01 373.81,-498.01 377.31,-488.01 370.31,-488.01"/>
<text text-anchor="middle" x="406.06" y="-472" font-family="Times,serif" font-size="10.00">wasInformedBy</text>
</g>
<!-- n11 -->
<g id="node11" class="node">
<title>n11</title>
<g id="a_node11"><a xlink:href="provinspector:ParentOperatorRevision" xlink:title="ParentOperatorRevision">
<ellipse fill="#fffc87" stroke="#808080" cx="656.81" cy="-517.5" rx="99.97" ry="18"/>
<text text-anchor="middle" x="656.81" y="-512.45" font-family="Times,serif" font-size="14.00">ParentOperatorRevision</text>
</a>
</g>
</g>
<!-- n9&#45;&gt;n11 -->
<g id="edge22" class="edge">
<title>n9&#45;&gt;n11</title>
<path fill="none" stroke="#8b0000" d="M424.97,-450C427.62,-450.76 430.25,-451.51 432.81,-452.25 487.52,-467.98 549.77,-485.83 594.73,-498.72"/>
<polygon fill="#8b0000" stroke="#8b0000" points="593.62,-502.33 604.2,-501.72 595.55,-495.6 593.62,-502.33"/>
<text text-anchor="middle" x="541.18" y="-472" font-family="Times,serif" font-size="10.00" fill="red">used</text>
</g>
<!-- n14 -->
<g id="node14" class="node">
<title>n14</title>
<g id="a_node14"><a xlink:href="provinspector:OperatorExecution" xlink:title="OperatorExecution">
<polygon fill="#9fb1fc" stroke="#0000ff" points="792.18,-285.75 673.43,-285.75 673.43,-249.75 792.18,-249.75 792.18,-285.75"/>
<text text-anchor="middle" x="732.81" y="-262.7" font-family="Times,serif" font-size="14.00">OperatorExecution</text>
</a>
</g>
</g>
<!-- n14&#45;&gt;n4 -->
<g id="edge27" class="edge">
<title>n14&#45;&gt;n4</title>
<path fill="none" stroke="#8b0000" d="M709.85,-286.18C694.17,-298.09 673.21,-314.01 656.15,-326.96"/>
<polygon fill="#8b0000" stroke="#8b0000" points="654.48,-324.6 648.63,-333.43 658.71,-330.17 654.48,-324.6"/>
<text text-anchor="middle" x="694.18" y="-305.5" font-family="Times,serif" font-size="10.00" fill="red">used</text>
</g>
<!-- n15 -->
<g id="node15" class="node">
<title>n15</title>
<g id="a_node15"><a xlink:href="provinspector:OperatorRun" xlink:title="OperatorRun">
<ellipse fill="#fffc87" stroke="#808080" cx="790.81" cy="-184.5" rx="59.03" ry="18"/>
<text text-anchor="middle" x="790.81" y="-179.45" font-family="Times,serif" font-size="14.00">OperatorRun</text>
</a>
</g>
</g>
<!-- n15&#45;&gt;n14 -->
<g id="edge28" class="edge">
<title>n15&#45;&gt;n14</title>
<path fill="none" stroke="darkgreen" d="M759.97,-200.28C751.95,-205.57 744.15,-212.3 739.06,-220.5 735.75,-225.84 733.87,-232.18 732.86,-238.43"/>
<polygon fill="darkgreen" stroke="darkgreen" points="729.28,-238.07 731.86,-248.35 736.26,-238.71 729.28,-238.07"/>
<text text-anchor="middle" x="773.68" y="-222.25" font-family="Times,serif" font-size="10.00" fill="darkgreen">wasGeneratedBy</text>
</g>
<!-- n15&#45;&gt;n16 -->
<g id="edge29" class="edge">
<title>n15&#45;&gt;n16</title>
<path fill="none" stroke="black" d="M801.68,-202.67C804.59,-208.15 807.33,-214.39 808.81,-220.5 809.98,-225.36 808.91,-226.75 808.81,-231.75 807.25,-305.8 846.98,-339.56 801.81,-398.25 785.35,-419.64 769.33,-407.48 743.81,-416.25 741.41,-417.07 738.95,-417.94 736.47,-418.83"/>
<polygon fill="black" stroke="black" points="735.5,-415.83 727.32,-422.56 737.91,-422.4 735.5,-415.83"/>
<text text-anchor="middle" x="844.18" y="-305.5" font-family="Times,serif" font-size="10.00">hadMember</text>
</g>
<!-- b1&#45;&gt;n6 -->
<g id="edge6" class="edge">
<title>b1&#45;&gt;n6</title>
<path fill="none" stroke="black" d="M517.37,-103.3C513.08,-113.51 478.61,-195.69 460.24,-239.49"/>
<polygon fill="black" stroke="black" points="456.69,-237.9 456.05,-248.48 463.15,-240.61 456.69,-237.9"/>
</g>
<!-- ann1 -->
<g id="node18" class="node">
<title>ann1</title>
<polygon fill="none" stroke="gray" points="719.93,-36 605.68,-36 605.68,0 725.93,0 725.93,-30 719.93,-36"/>
<polyline fill="none" stroke="gray" points="719.93,-36 719.93,-30"/>
<polyline fill="none" stroke="gray" points="725.93,-30 719.93,-30"/>
<g id="a_node18_0"><a xlink:href="http://www.w3.org/ns/prov#type" xlink:title="&lt;TABLE&gt;">
<text text-anchor="start" x="615.68" y="-14.12" font-family="Times,serif" font-size="10.00">prov:type</text>
</a>
</g>
<g id="a_node18_1"><a xlink:href="http://www.w3.org/ns/prov#Revision" xlink:title="&lt;TABLE&gt;">
<text text-anchor="start" x="657.43" y="-14.12" font-family="Times,serif" font-size="10.00">prov:Revision</text>
</a>
</g>
</g>
<!-- ann1&#45;&gt;b1 -->
<g id="edge7" class="edge">
<title>ann1&#45;&gt;b1</title>
<path fill="none" stroke="gray" stroke-dasharray="5,2" d="M634.06,-36.43C593.97,-58.44 529,-94.11 519.09,-99.55"/>
</g>
<!-- b2&#45;&gt;n11 -->
<g id="edge20" class="edge">
<title>b2&#45;&gt;n11</title>
<path fill="none" stroke="black" d="M754.32,-436.26C752.95,-439.03 748.82,-446.92 743.81,-452.25 728.94,-468.06 709.76,-482.7 693.2,-493.99"/>
<polygon fill="black" stroke="black" points="691.69,-491.45 685.31,-499.91 695.57,-497.28 691.69,-491.45"/>
</g>
<!-- ann2 -->
<g id="node20" class="node">
<title>ann2</title>
<polygon fill="none" stroke="gray" points="964.93,-369 850.68,-369 850.68,-333 970.93,-333 970.93,-363 964.93,-369"/>
<polyline fill="none" stroke="gray" points="964.93,-369 964.93,-363"/>
<polyline fill="none" stroke="gray" points="970.93,-363 964.93,-363"/>
<g id="a_node20_2"><a xlink:href="http://www.w3.org/ns/prov#type" xlink:title="&lt;TABLE&gt;">
<text text-anchor="start" x="860.68" y="-347.12" font-family="Times,serif" font-size="10.00">prov:type</text>
</a>
</g>
<g id="a_node20_3"><a xlink:href="http://www.w3.org/ns/prov#Revision" xlink:title="&lt;TABLE&gt;">
<text text-anchor="start" x="902.43" y="-347.12" font-family="Times,serif" font-size="10.00">prov:Revision</text>
</a>
</g>
</g>
<!-- ann2&#45;&gt;b2 -->
<g id="edge21" class="edge">
<title>ann2&#45;&gt;b2</title>
<path fill="none" stroke="gray" stroke-dasharray="5,2" d="M885.02,-369.5C871.06,-378.61 853.33,-389.63 836.81,-398.25 805.52,-414.58 764.92,-429.58 756.41,-432.67"/>
</g>
</g>
</svg>
