<?xml version="1.0" encoding="UTF-8" standalone="no"?>
<!DOCTYPE svg PUBLIC "-//W3C//DTD SVG 1.1//EN"
 "http://www.w3.org/Graphics/SVG/1.1/DTD/svg11.dtd">
<!-- Generated by graphviz version 8.1.0 (20230707.0739)
 -->
<!-- Title: G Pages: 1 -->
<svg width="659pt" height="294pt"
 viewBox="0.00 0.00 658.92 293.75" xmlns="http://www.w3.org/2000/svg" xmlns:xlink="http://www.w3.org/1999/xlink">
<g id="graph0" class="graph" transform="scale(1 1) rotate(0) translate(4 289.75)">
<title>G</title>
<polygon fill="white" stroke="none" points="-4,4 -4,-289.75 654.92,-289.75 654.92,4 -4,4"/>
<!-- n1 -->
<g id="node1" class="node">
<title>n1</title>
<g id="a_node1"><a xlink:href="provinspector:PipelineChange" xlink:title="PipelineChange">
<polygon fill="#9fb1fc" stroke="#0000ff" points="135.54,-202.5 34.04,-202.5 34.04,-166.5 135.54,-166.5 135.54,-202.5"/>
<text text-anchor="middle" x="84.79" y="-179.45" font-family="Times,serif" font-size="14.00">PipelineChange</text>
</a>
</g>
</g>
<!-- n2 -->
<g id="node2" class="node">
<title>n2</title>
<g id="a_node2"><a xlink:href="provinspector:ParentPipelineChange" xlink:title="ParentPipelineChange">
<polygon fill="#9fb1fc" stroke="#0000ff" points="152.79,-285.75 16.79,-285.75 16.79,-249.75 152.79,-249.75 152.79,-285.75"/>
<text text-anchor="middle" x="84.79" y="-262.7" font-family="Times,serif" font-size="14.00">ParentPipelineChange</text>
</a>
</g>
</g>
<!-- n1&#45;&gt;n2 -->
<g id="edge1" class="edge">
<title>n1&#45;&gt;n2</title>
<path fill="none" stroke="black" d="M84.79,-202.73C84.79,-213.11 84.79,-226.58 84.79,-238.48"/>
<polygon fill="black" stroke="black" points="81.29,-238.26 84.79,-248.26 88.29,-238.26 81.29,-238.26"/>
<text text-anchor="middle" x="117.04" y="-222.25" font-family="Times,serif" font-size="10.00">wasInformedBy</text>
</g>
<!-- n8 -->
<g id="node8" class="node">
<title>n8</title>
<g id="a_node8"><a xlink:href="provinspector:ParentPipelineVersionRevision" xlink:title="ParentPipelineVersionRevision">
<ellipse fill="#fffc87" stroke="#808080" cx="435.79" cy="-267.75" rx="125.56" ry="18"/>
<text text-anchor="middle" x="435.79" y="-262.7" font-family="Times,serif" font-size="14.00">ParentPipelineVersionRevision</text>
</a>
</g>
</g>
<!-- n1&#45;&gt;n8 -->
<g id="edge11" class="edge">
<title>n1&#45;&gt;n8</title>
<path fill="none" stroke="#8b0000" d="M135.91,-200.44C138.57,-201.15 141.21,-201.84 143.79,-202.5 214.48,-220.44 295.54,-238.04 354.28,-250.27"/>
<polygon fill="#8b0000" stroke="#8b0000" points="353.48,-253.89 363.99,-252.49 354.91,-247.04 353.48,-253.89"/>
<text text-anchor="middle" x="273.17" y="-222.25" font-family="Times,serif" font-size="10.00" fill="red">used</text>
</g>
<!-- n3 -->
<g id="node3" class="node">
<title>n3</title>
<g id="a_node3"><a xlink:href="provinspector:OperatorRevision" xlink:title="OperatorRevision">
<ellipse fill="#fffc87" stroke="#808080" cx="161.79" cy="-101.25" rx="76.43" ry="18"/>
<text text-anchor="middle" x="161.79" y="-96.2" font-family="Times,serif" font-size="14.00">OperatorRevision</text>
</a>
</g>
</g>
<!-- n3&#45;&gt;n1 -->
<g id="edge2" class="edge">
<title>n3&#45;&gt;n1</title>
<path fill="none" stroke="black" d="M124.48,-117.3C115.3,-122.48 106.2,-129.08 99.54,-137.25 95.14,-142.65 92.04,-149.39 89.87,-156.04"/>
<polygon fill="black" stroke="black" points="86.35,-154.64 87.15,-165.2 93.11,-156.44 86.35,-154.64"/>
<text text-anchor="middle" x="136.92" y="-139" font-family="Times,serif" font-size="10.00">wasInvalidatedBy</text>
</g>
<!-- n4 -->
<g id="node4" class="node">
<title>n4</title>
<g id="a_node4"><a xlink:href="provinspector:Operator" xlink:title="Operator">
<ellipse fill="#fffc87" stroke="#808080" cx="196.79" cy="-184.5" rx="43.67" ry="18"/>
<text text-anchor="middle" x="196.79" y="-179.45" font-family="Times,serif" font-size="14.00">Operator</text>
</a>
</g>
</g>
<!-- n3&#45;&gt;n4 -->
<g id="edge3" class="edge">
<title>n3&#45;&gt;n4</title>
<path fill="none" stroke="black" d="M169.22,-119.48C173.81,-130.15 179.81,-144.07 185.04,-156.21"/>
<polygon fill="black" stroke="black" points="182.21,-157.49 189.38,-165.29 188.64,-154.72 182.21,-157.49"/>
<text text-anchor="middle" x="215.54" y="-139" font-family="Times,serif" font-size="10.00">specializationOf</text>
</g>
<!-- n5 -->
<g id="node5" class="node">
<title>n5</title>
<g id="a_node5"><a xlink:href="provinspector:PipelineVersionRevision" xlink:title="PipelineVersionRevision">
<ellipse fill="#fffc87" stroke="#808080" cx="309.79" cy="-18" rx="102.02" ry="18"/>
<text text-anchor="middle" x="309.79" y="-12.95" font-family="Times,serif" font-size="14.00">PipelineVersionRevision</text>
</a>
</g>
</g>
<!-- n5&#45;&gt;n1 -->
<g id="edge6" class="edge">
<title>n5&#45;&gt;n1</title>
<path fill="none" stroke="darkgreen" d="M217.84,-26C138.71,-34.16 33.25,-50.89 7.04,-83.25 -14,-109.23 17.25,-139.65 46.17,-160.11"/>
<polygon fill="darkgreen" stroke="darkgreen" points="43.78,-163.39 54.02,-166.12 47.72,-157.6 43.78,-163.39"/>
<text text-anchor="middle" x="42.67" y="-97.38" font-family="Times,serif" font-size="10.00" fill="darkgreen">wasGeneratedBy</text>
</g>
<!-- n5&#45;&gt;n3 -->
<g id="edge4" class="edge">
<title>n5&#45;&gt;n3</title>
<path fill="none" stroke="black" d="M279.49,-35.64C256.64,-48.18 225.14,-65.47 200.48,-79.01"/>
<polygon fill="black" stroke="black" points="199.13,-76.31 192.05,-84.19 202.5,-82.44 199.13,-76.31"/>
<text text-anchor="middle" x="269.17" y="-55.75" font-family="Times,serif" font-size="10.00">hadMember</text>
</g>
<!-- n6 -->
<g id="node6" class="node">
<title>n6</title>
<g id="a_node6"><a xlink:href="provinspector:Connection" xlink:title="Connection">
<ellipse fill="#fffc87" stroke="#808080" cx="309.79" cy="-101.25" rx="53.4" ry="18"/>
<text text-anchor="middle" x="309.79" y="-96.2" font-family="Times,serif" font-size="14.00">Connection</text>
</a>
</g>
</g>
<!-- n5&#45;&gt;n6 -->
<g id="edge5" class="edge">
<title>n5&#45;&gt;n6</title>
<path fill="none" stroke="black" d="M309.79,-36.23C309.79,-46.61 309.79,-60.08 309.79,-71.98"/>
<polygon fill="black" stroke="black" points="306.29,-71.76 309.79,-81.76 313.29,-71.76 306.29,-71.76"/>
<text text-anchor="middle" x="334.17" y="-55.75" font-family="Times,serif" font-size="10.00">hadMember</text>
</g>
<!-- n7 -->
<g id="node7" class="node">
<title>n7</title>
<g id="a_node7"><a xlink:href="provinspector:PipelineVersion" xlink:title="PipelineVersion">
<ellipse fill="#fffc87" stroke="#808080" cx="450.79" cy="-101.25" rx="69.26" ry="18"/>
<text text-anchor="middle" x="450.79" y="-96.2" font-family="Times,serif" font-size="14.00">PipelineVersion</text>
</a>
</g>
</g>
<!-- n5&#45;&gt;n7 -->
<g id="edge7" class="edge">
<title>n5&#45;&gt;n7</title>
<path fill="none" stroke="black" d="M338.67,-35.64C360.48,-48.21 390.57,-65.55 414.09,-79.1"/>
<polygon fill="black" stroke="black" points="411.98,-82.5 422.4,-84.46 415.48,-76.44 411.98,-82.5"/>
<text text-anchor="middle" x="422.54" y="-55.75" font-family="Times,serif" font-size="10.00">specializationOf</text>
</g>
<!-- b1 -->
<g id="node9" class="node">
<title>b1</title>
<ellipse fill="gray" stroke="gray" cx="539.79" cy="-101.25" rx="1.8" ry="1.8"/>
</g>
<!-- n5&#45;&gt;b1 -->
<g id="edge8" class="edge">
<title>n5&#45;&gt;b1</title>
<path fill="none" stroke="black" d="M376.55,-32C402.78,-37.78 432.97,-45.26 459.79,-54 491.46,-64.32 503.29,-61.82 528.79,-83.25 534.39,-87.95 538.15,-96.24 539.37,-99.18"/>
<text text-anchor="middle" x="533.67" y="-55.75" font-family="Times,serif" font-size="10.00">wasDerivedFrom</text>
</g>
<!-- b1&#45;&gt;n8 -->
<g id="edge9" class="edge">
<title>b1&#45;&gt;n8</title>
<path fill="none" stroke="black" d="M539.13,-103.3C532.63,-113.58 480.06,-196.74 452.51,-240.32"/>
<polygon fill="black" stroke="black" points="449.1,-238.15 446.71,-248.48 455.02,-241.89 449.1,-238.15"/>
</g>
<!-- ann1 -->
<g id="node10" class="node">
<title>ann1</title>
<polygon fill="none" stroke="gray" points="644.92,-36 530.67,-36 530.67,0 650.92,0 650.92,-30 644.92,-36"/>
<polyline fill="none" stroke="gray" points="644.92,-36 644.92,-30"/>
<polyline fill="none" stroke="gray" points="650.92,-30 644.92,-30"/>
<g id="a_node10_0"><a xlink:href="http://www.w3.org/ns/prov#type" xlink:title="&lt;TABLE&gt;">
<text text-anchor="start" x="540.67" y="-14.12" font-family="Times,serif" font-size="10.00">prov:type</text>
</a>
</g>
<g id="a_node10_1"><a xlink:href="http://www.w3.org/ns/prov#Revision" xlink:title="&lt;TABLE&gt;">
<text text-anchor="start" x="582.42" y="-14.12" font-family="Times,serif" font-size="10.00">prov:Revision</text>
</a>
</g>
</g>
<!-- ann1&#45;&gt;b1 -->
<g id="edge10" class="edge">
<title>ann1&#45;&gt;b1</title>
<path fill="none" stroke="gray" stroke-dasharray="5,2" d="M587.83,-36.15C585.72,-45.27 582.26,-56.4 576.79,-65.25 566.38,-82.1 545.86,-96.26 540.89,-99.54"/>
</g>
</g>
</svg>
