<?xml version="1.0" encoding="UTF-8" standalone="no"?>
<!DOCTYPE svg PUBLIC "-//W3C//DTD SVG 1.1//EN"
 "http://www.w3.org/Graphics/SVG/1.1/DTD/svg11.dtd">
<!-- Generated by graphviz version 8.1.0 (20230707.0739)
 -->
<!-- Title: G Pages: 1 -->
<svg width="230pt" height="294pt"
 viewBox="0.00 0.00 230.18 293.75" xmlns="http://www.w3.org/2000/svg" xmlns:xlink="http://www.w3.org/1999/xlink">
<g id="graph0" class="graph" transform="scale(1 1) rotate(0) translate(4 289.75)">
<title>G</title>
<polygon fill="white" stroke="none" points="-4,4 -4,-289.75 226.18,-289.75 226.18,4 -4,4"/>
<!-- n1 -->
<g id="node1" class="node">
<title>n1</title>
<g id="a_node1"><a xlink:href="provinspector:OperatorExecution" xlink:title="OperatorExecution">
<polygon fill="#9fb1fc" stroke="#0000ff" points="148.81,-119.25 30.06,-119.25 30.06,-83.25 148.81,-83.25 148.81,-119.25"/>
<text text-anchor="middle" x="89.43" y="-96.2" font-family="Times,serif" font-size="14.00">OperatorExecution</text>
</a>
</g>
</g>
<!-- n2 -->
<g id="node2" class="node">
<title>n2</title>
<g id="a_node2"><a xlink:href="provinspector:OperatorRevision" xlink:title="OperatorRevision">
<ellipse fill="#fffc87" stroke="#808080" cx="76.43" cy="-184.5" rx="76.43" ry="18"/>
<text text-anchor="middle" x="76.43" y="-179.45" font-family="Times,serif" font-size="14.00">OperatorRevision</text>
</a>
</g>
</g>
<!-- n1&#45;&gt;n2 -->
<g id="edge1" class="edge">
<title>n1&#45;&gt;n2</title>
<path fill="none" stroke="#8b0000" d="M86.67,-119.48C85.01,-129.86 82.86,-143.33 80.95,-155.23"/>
<polygon fill="#8b0000" stroke="#8b0000" points="77.35,-154.59 79.23,-165.01 84.26,-155.69 77.35,-154.59"/>
<text text-anchor="middle" x="93.81" y="-139" font-family="Times,serif" font-size="10.00" fill="red">used</text>
</g>
<!-- n4 -->
<g id="node4" class="node">
<title>n4</title>
<g id="a_node4"><a xlink:href="provinspector:Metric" xlink:title="Metric">
<ellipse fill="#fffc87" stroke="#808080" cx="128.43" cy="-267.75" rx="36" ry="18"/>
<text text-anchor="middle" x="128.43" y="-262.7" font-family="Times,serif" font-size="14.00">Metric</text>
</a>
</g>
</g>
<!-- n2&#45;&gt;n4 -->
<g id="edge4" class="edge">
<title>n2&#45;&gt;n4</title>
<path fill="none" stroke="black" d="M87.46,-202.73C94.58,-213.87 103.99,-228.56 111.99,-241.06"/>
<polygon fill="black" stroke="black" points="109.44,-242.56 117.77,-249.1 115.33,-238.79 109.44,-242.56"/>
<text text-anchor="middle" x="130.81" y="-222.25" font-family="Times,serif" font-size="10.00">hadMember</text>
</g>
<!-- n3 -->
<g id="node3" class="node">
<title>n3</title>
<g id="a_node3"><a xlink:href="provinspector:OperatorRun" xlink:title="OperatorRun">
<ellipse fill="#fffc87" stroke="#808080" cx="136.43" cy="-18" rx="59.03" ry="18"/>
<text text-anchor="middle" x="136.43" y="-12.95" font-family="Times,serif" font-size="14.00">OperatorRun</text>
</a>
</g>
</g>
<!-- n3&#45;&gt;n1 -->
<g id="edge2" class="edge">
<title>n3&#45;&gt;n1</title>
<path fill="none" stroke="darkgreen" d="M112.99,-34.91C106.76,-40.27 100.66,-46.75 96.68,-54 93.65,-59.52 91.79,-65.94 90.67,-72.2"/>
<polygon fill="darkgreen" stroke="darkgreen" points="87.08,-71.74 89.36,-82.09 94.03,-72.58 87.08,-71.74"/>
<text text-anchor="middle" x="132.31" y="-55.75" font-family="Times,serif" font-size="10.00" fill="darkgreen">wasGeneratedBy</text>
</g>
<!-- n3&#45;&gt;n4 -->
<g id="edge3" class="edge">
<title>n3&#45;&gt;n4</title>
<path fill="none" stroke="black" d="M154.76,-35.54C159.48,-40.91 163.93,-47.24 166.43,-54 168.16,-58.69 166.52,-60.25 166.43,-65.25 165.08,-139.3 188.04,-163.43 159.43,-231.75 157.75,-235.76 155.41,-239.63 152.77,-243.23"/>
<polygon fill="black" stroke="black" points="149.51,-240.68 145.77,-250.6 154.87,-245.18 149.51,-240.68"/>
<text text-anchor="middle" x="197.81" y="-139" font-family="Times,serif" font-size="10.00">hadMember</text>
</g>
</g>
</svg>
