<?xml version="1.0" encoding="UTF-8" standalone="no"?>
<!DOCTYPE svg PUBLIC "-//W3C//DTD SVG 1.1//EN"
 "http://www.w3.org/Graphics/SVG/1.1/DTD/svg11.dtd">
<!-- Generated by graphviz version 8.1.0 (20230707.0739)
 -->
<!-- Title: G Pages: 1 -->
<svg width="883pt" height="294pt"
 viewBox="0.00 0.00 882.96 293.75" xmlns="http://www.w3.org/2000/svg" xmlns:xlink="http://www.w3.org/1999/xlink">
<g id="graph0" class="graph" transform="scale(1 1) rotate(0) translate(4 289.75)">
<title>G</title>
<polygon fill="white" stroke="none" points="-4,4 -4,-289.75 878.96,-289.75 878.96,4 -4,4"/>
<!-- n1 -->
<g id="node1" class="node">
<title>n1</title>
<g id="a_node1"><a xlink:href="provinspector:PipelineChange" xlink:title="PipelineChange">
<polygon fill="#9fb1fc" stroke="#0000ff" points="358.15,-202.5 256.65,-202.5 256.65,-166.5 358.15,-166.5 358.15,-202.5"/>
<text text-anchor="middle" x="307.4" y="-179.45" font-family="Times,serif" font-size="14.00">PipelineChange</text>
</a>
</g>
</g>
<!-- n2 -->
<g id="node2" class="node">
<title>n2</title>
<g id="a_node2"><a xlink:href="provinspector:ParentPipelineChange" xlink:title="ParentPipelineChange">
<polygon fill="#9fb1fc" stroke="#0000ff" points="375.4,-285.75 239.4,-285.75 239.4,-249.75 375.4,-249.75 375.4,-285.75"/>
<text text-anchor="middle" x="307.4" y="-262.7" font-family="Times,serif" font-size="14.00">ParentPipelineChange</text>
</a>
</g>
</g>
<!-- n1&#45;&gt;n2 -->
<g id="edge1" class="edge">
<title>n1&#45;&gt;n2</title>
<path fill="none" stroke="black" d="M307.4,-202.73C307.4,-213.11 307.4,-226.58 307.4,-238.48"/>
<polygon fill="black" stroke="black" points="303.9,-238.26 307.4,-248.26 310.9,-238.26 303.9,-238.26"/>
<text text-anchor="middle" x="339.65" y="-222.25" font-family="Times,serif" font-size="10.00">wasInformedBy</text>
</g>
<!-- n4 -->
<g id="node4" class="node">
<title>n4</title>
<g id="a_node4"><a xlink:href="provinspector:ParentOperatorRevision" xlink:title="ParentOperatorRevision">
<ellipse fill="#fffc87" stroke="#808080" cx="501.4" cy="-267.75" rx="99.97" ry="18"/>
<text text-anchor="middle" x="501.4" y="-262.7" font-family="Times,serif" font-size="14.00">ParentOperatorRevision</text>
</a>
</g>
</g>
<!-- n1&#45;&gt;n4 -->
<g id="edge6" class="edge">
<title>n1&#45;&gt;n4</title>
<path fill="none" stroke="#8b0000" d="M349.02,-202.93C379.56,-215.72 421.11,-233.13 453.11,-246.53"/>
<polygon fill="#8b0000" stroke="#8b0000" points="451.57,-250.09 462.14,-250.73 454.27,-243.64 451.57,-250.09"/>
<text text-anchor="middle" x="425.77" y="-222.25" font-family="Times,serif" font-size="10.00" fill="red">used</text>
</g>
<!-- n10 -->
<g id="node10" class="node">
<title>n10</title>
<g id="a_node10"><a xlink:href="provinspector:ParentPipelineVersionRevision" xlink:title="ParentPipelineVersionRevision">
<ellipse fill="#fffc87" stroke="#808080" cx="749.4" cy="-267.75" rx="125.56" ry="18"/>
<text text-anchor="middle" x="749.4" y="-262.7" font-family="Times,serif" font-size="14.00">ParentPipelineVersionRevision</text>
</a>
</g>
</g>
<!-- n1&#45;&gt;n10 -->
<g id="edge16" class="edge">
<title>n1&#45;&gt;n10</title>
<path fill="none" stroke="#8b0000" d="M358.36,-200.35C361.41,-201.11 364.44,-201.83 367.4,-202.5 462.65,-223.94 572.71,-241.72 650.16,-253.1"/>
<polygon fill="#8b0000" stroke="#8b0000" points="649.46,-256.69 659.86,-254.67 650.48,-249.76 649.46,-256.69"/>
<text text-anchor="middle" x="523.77" y="-222.25" font-family="Times,serif" font-size="10.00" fill="red">used</text>
</g>
<!-- n3 -->
<g id="node3" class="node">
<title>n3</title>
<g id="a_node3"><a xlink:href="provinspector:OperatorRevision" xlink:title="OperatorRevision">
<ellipse fill="#fffc87" stroke="#808080" cx="463.4" cy="-101.25" rx="76.43" ry="18"/>
<text text-anchor="middle" x="463.4" y="-96.2" font-family="Times,serif" font-size="14.00">OperatorRevision</text>
</a>
</g>
</g>
<!-- n3&#45;&gt;n1 -->
<g id="edge2" class="edge">
<title>n3&#45;&gt;n1</title>
<path fill="none" stroke="darkgreen" d="M406.73,-113.68C387.97,-119.03 367.58,-126.64 350.65,-137.25 341.76,-142.82 333.48,-150.67 326.6,-158.32"/>
<polygon fill="darkgreen" stroke="darkgreen" points="323.52,-155.54 319.72,-165.43 328.86,-160.07 323.52,-155.54"/>
<text text-anchor="middle" x="386.27" y="-139" font-family="Times,serif" font-size="10.00" fill="darkgreen">wasGeneratedBy</text>
</g>
<!-- n5 -->
<g id="node5" class="node">
<title>n5</title>
<g id="a_node5"><a xlink:href="provinspector:Operator" xlink:title="Operator">
<ellipse fill="#fffc87" stroke="#808080" cx="535.4" cy="-184.5" rx="43.67" ry="18"/>
<text text-anchor="middle" x="535.4" y="-179.45" font-family="Times,serif" font-size="14.00">Operator</text>
</a>
</g>
</g>
<!-- n3&#45;&gt;n5 -->
<g id="edge7" class="edge">
<title>n3&#45;&gt;n5</title>
<path fill="none" stroke="black" d="M475.62,-119.44C482.21,-128.37 490.66,-139.3 498.9,-148.5 502.38,-152.38 506.21,-156.35 510.03,-160.15"/>
<polygon fill="black" stroke="black" points="507.16,-162.2 516.78,-166.63 512.02,-157.17 507.16,-162.2"/>
<text text-anchor="middle" x="533.15" y="-139" font-family="Times,serif" font-size="10.00">specializationOf</text>
</g>
<!-- n6 -->
<g id="node6" class="node">
<title>n6</title>
<g id="a_node6"><a xlink:href="provinspector:Parameter" xlink:title="Parameter">
<ellipse fill="#fffc87" stroke="#808080" cx="425.4" cy="-184.5" rx="48.79" ry="18"/>
<text text-anchor="middle" x="425.4" y="-179.45" font-family="Times,serif" font-size="14.00">Parameter</text>
</a>
</g>
</g>
<!-- n3&#45;&gt;n6 -->
<g id="edge8" class="edge">
<title>n3&#45;&gt;n6</title>
<path fill="none" stroke="black" d="M440.38,-118.89C434.88,-124.1 429.73,-130.33 426.65,-137.25 424.16,-142.85 423.04,-149.21 422.7,-155.39"/>
<polygon fill="black" stroke="black" points="419.21,-155.14 422.79,-165.11 426.21,-155.08 419.21,-155.14"/>
<text text-anchor="middle" x="451.77" y="-139" font-family="Times,serif" font-size="10.00">hadMember</text>
</g>
<!-- b1 -->
<g id="node11" class="node">
<title>b1</title>
<ellipse fill="gray" stroke="gray" cx="598.4" cy="-184.5" rx="1.8" ry="1.8"/>
</g>
<!-- n3&#45;&gt;b1 -->
<g id="edge3" class="edge">
<title>n3&#45;&gt;b1</title>
<path fill="none" stroke="black" d="M518.19,-114.22C534.69,-119.51 552.17,-126.95 566.4,-137.25 584.75,-150.54 596.12,-177.73 598.09,-182.71"/>
<text text-anchor="middle" x="613.27" y="-139" font-family="Times,serif" font-size="10.00">wasDerivedFrom</text>
</g>
<!-- n7 -->
<g id="node7" class="node">
<title>n7</title>
<g id="a_node7"><a xlink:href="provinspector:PipelineVersionRevision" xlink:title="PipelineVersionRevision">
<ellipse fill="#fffc87" stroke="#808080" cx="299.4" cy="-18" rx="102.02" ry="18"/>
<text text-anchor="middle" x="299.4" y="-12.95" font-family="Times,serif" font-size="14.00">PipelineVersionRevision</text>
</a>
</g>
</g>
<!-- n7&#45;&gt;n1 -->
<g id="edge11" class="edge">
<title>n7&#45;&gt;n1</title>
<path fill="none" stroke="darkgreen" d="M300.24,-36.29C301.62,-64.68 304.38,-121.4 306.04,-155.55"/>
<polygon fill="darkgreen" stroke="darkgreen" points="302.58,-155.37 306.56,-165.19 309.57,-155.03 302.58,-155.37"/>
<text text-anchor="middle" x="339.27" y="-97.38" font-family="Times,serif" font-size="10.00" fill="darkgreen">wasGeneratedBy</text>
</g>
<!-- n7&#45;&gt;n3 -->
<g id="edge9" class="edge">
<title>n7&#45;&gt;n3</title>
<path fill="none" stroke="black" d="M332.59,-35.44C358.34,-48.2 394.21,-65.97 421.87,-79.67"/>
<polygon fill="black" stroke="black" points="420.14,-83.22 430.65,-84.52 423.25,-76.95 420.14,-83.22"/>
<text text-anchor="middle" x="415.77" y="-55.75" font-family="Times,serif" font-size="10.00">hadMember</text>
</g>
<!-- n8 -->
<g id="node8" class="node">
<title>n8</title>
<g id="a_node8"><a xlink:href="provinspector:Connection" xlink:title="Connection">
<ellipse fill="#fffc87" stroke="#808080" cx="53.4" cy="-101.25" rx="53.4" ry="18"/>
<text text-anchor="middle" x="53.4" y="-96.2" font-family="Times,serif" font-size="14.00">Connection</text>
</a>
</g>
</g>
<!-- n7&#45;&gt;n8 -->
<g id="edge10" class="edge">
<title>n7&#45;&gt;n8</title>
<path fill="none" stroke="black" d="M234.73,-32.25C210.01,-37.99 181.75,-45.38 156.65,-54 134.76,-61.52 111.15,-71.91 92.04,-80.94"/>
<polygon fill="black" stroke="black" points="90.71,-78.18 83.2,-85.66 93.74,-84.49 90.71,-78.18"/>
<text text-anchor="middle" x="181.77" y="-55.75" font-family="Times,serif" font-size="10.00">hadMember</text>
</g>
<!-- n9 -->
<g id="node9" class="node">
<title>n9</title>
<g id="a_node9"><a xlink:href="provinspector:PipelineVersion" xlink:title="PipelineVersion">
<ellipse fill="#fffc87" stroke="#808080" cx="194.4" cy="-101.25" rx="69.26" ry="18"/>
<text text-anchor="middle" x="194.4" y="-96.2" font-family="Times,serif" font-size="14.00">PipelineVersion</text>
</a>
</g>
</g>
<!-- n7&#45;&gt;n9 -->
<g id="edge12" class="edge">
<title>n7&#45;&gt;n9</title>
<path fill="none" stroke="black" d="M249.54,-33.94C238.22,-39 226.89,-45.57 217.9,-54 212.25,-59.3 207.74,-66.26 204.25,-73.16"/>
<polygon fill="black" stroke="black" points="200.72,-71.48 199.84,-82.04 207.11,-74.33 200.72,-71.48"/>
<text text-anchor="middle" x="252.15" y="-55.75" font-family="Times,serif" font-size="10.00">specializationOf</text>
</g>
<!-- b2 -->
<g id="node13" class="node">
<title>b2</title>
<ellipse fill="gray" stroke="gray" cx="752.4" cy="-101.25" rx="1.8" ry="1.8"/>
</g>
<!-- n7&#45;&gt;b2 -->
<g id="edge13" class="edge">
<title>n7&#45;&gt;b2</title>
<path fill="none" stroke="black" d="M386.37,-27.75C506.59,-40.43 712.11,-64.46 741.4,-83.25 747.55,-87.2 750.97,-95.95 752.03,-99.1"/>
<text text-anchor="middle" x="704.27" y="-55.75" font-family="Times,serif" font-size="10.00">wasDerivedFrom</text>
</g>
<!-- b1&#45;&gt;n4 -->
<g id="edge4" class="edge">
<title>b1&#45;&gt;n4</title>
<path fill="none" stroke="black" d="M597.98,-186.51C596.79,-189.29 593.17,-197.21 588.4,-202.5 573.98,-218.51 555.01,-233.08 538.46,-244.28"/>
<polygon fill="black" stroke="black" points="536.98,-241.72 530.56,-250.14 540.84,-247.56 536.98,-241.72"/>
</g>
<!-- ann1 -->
<g id="node12" class="node">
<title>ann1</title>
<polygon fill="none" stroke="gray" points="726.52,-119.25 612.27,-119.25 612.27,-83.25 732.52,-83.25 732.52,-113.25 726.52,-119.25"/>
<polyline fill="none" stroke="gray" points="726.52,-119.25 726.52,-113.25"/>
<polyline fill="none" stroke="gray" points="732.52,-113.25 726.52,-113.25"/>
<g id="a_node12_0"><a xlink:href="http://www.w3.org/ns/prov#type" xlink:title="&lt;TABLE&gt;">
<text text-anchor="start" x="622.27" y="-97.38" font-family="Times,serif" font-size="10.00">prov:type</text>
</a>
</g>
<g id="a_node12_1"><a xlink:href="http://www.w3.org/ns/prov#Revision" xlink:title="&lt;TABLE&gt;">
<text text-anchor="start" x="664.02" y="-97.38" font-family="Times,serif" font-size="10.00">prov:Revision</text>
</a>
</g>
</g>
<!-- ann1&#45;&gt;b1 -->
<g id="edge5" class="edge">
<title>ann1&#45;&gt;b1</title>
<path fill="none" stroke="gray" stroke-dasharray="5,2" d="M670.74,-119.5C669.11,-128.88 665.86,-140.21 659.4,-148.5 642.29,-170.46 607.27,-181.07 599.81,-183.12"/>
</g>
<!-- b2&#45;&gt;n10 -->
<g id="edge14" class="edge">
<title>b2&#45;&gt;n10</title>
<path fill="none" stroke="black" d="M752.38,-103.3C752.19,-113.45 750.71,-194.65 749.91,-238.65"/>
<polygon fill="black" stroke="black" points="746.4,-238.41 749.71,-248.48 753.4,-238.54 746.4,-238.41"/>
</g>
<!-- ann2 -->
<g id="node14" class="node">
<title>ann2</title>
<polygon fill="none" stroke="gray" points="806.52,-36 692.27,-36 692.27,0 812.52,0 812.52,-30 806.52,-36"/>
<polyline fill="none" stroke="gray" points="806.52,-36 806.52,-30"/>
<polyline fill="none" stroke="gray" points="812.52,-30 806.52,-30"/>
<g id="a_node14_2"><a xlink:href="http://www.w3.org/ns/prov#type" xlink:title="&lt;TABLE&gt;">
<text text-anchor="start" x="702.27" y="-14.12" font-family="Times,serif" font-size="10.00">prov:type</text>
</a>
</g>
<g id="a_node14_3"><a xlink:href="http://www.w3.org/ns/prov#Revision" xlink:title="&lt;TABLE&gt;">
<text text-anchor="start" x="744.02" y="-14.12" font-family="Times,serif" font-size="10.00">prov:Revision</text>
</a>
</g>
</g>
<!-- ann2&#45;&gt;b2 -->
<g id="edge15" class="edge">
<title>ann2&#45;&gt;b2</title>
<path fill="none" stroke="gray" stroke-dasharray="5,2" d="M752.4,-36.23C752.4,-57.85 752.4,-92.86 752.4,-99.24"/>
</g>
</g>
</svg>
