<?xml version="1.0" encoding="UTF-8" standalone="no"?>
<!DOCTYPE svg PUBLIC "-//W3C//DTD SVG 1.1//EN"
 "http://www.w3.org/Graphics/SVG/1.1/DTD/svg11.dtd">
<!-- Generated by graphviz version 8.1.0 (20230707.0739)
 -->
<!-- Title: G Pages: 1 -->
<svg width="677pt" height="294pt"
 viewBox="0.00 0.00 677.12 293.75" xmlns="http://www.w3.org/2000/svg" xmlns:xlink="http://www.w3.org/1999/xlink">
<g id="graph0" class="graph" transform="scale(1 1) rotate(0) translate(4 289.75)">
<title>G</title>
<polygon fill="white" stroke="none" points="-4,4 -4,-289.75 673.12,-289.75 673.12,4 -4,4"/>
<!-- n1 -->
<g id="node1" class="node">
<title>n1</title>
<g id="a_node1"><a xlink:href="provinspector:PipelineChange" xlink:title="PipelineChange">
<polygon fill="#9fb1fc" stroke="#0000ff" points="118.75,-202.5 17.25,-202.5 17.25,-166.5 118.75,-166.5 118.75,-202.5"/>
<text text-anchor="middle" x="68" y="-179.45" font-family="Times,serif" font-size="14.00">PipelineChange</text>
</a>
</g>
</g>
<!-- n2 -->
<g id="node2" class="node">
<title>n2</title>
<g id="a_node2"><a xlink:href="provinspector:ParentPipelineChange" xlink:title="ParentPipelineChange">
<polygon fill="#9fb1fc" stroke="#0000ff" points="136,-285.75 0,-285.75 0,-249.75 136,-249.75 136,-285.75"/>
<text text-anchor="middle" x="68" y="-262.7" font-family="Times,serif" font-size="14.00">ParentPipelineChange</text>
</a>
</g>
</g>
<!-- n1&#45;&gt;n2 -->
<g id="edge1" class="edge">
<title>n1&#45;&gt;n2</title>
<path fill="none" stroke="black" d="M68,-202.73C68,-213.11 68,-226.58 68,-238.48"/>
<polygon fill="black" stroke="black" points="64.5,-238.26 68,-248.26 71.5,-238.26 64.5,-238.26"/>
<text text-anchor="middle" x="100.25" y="-222.25" font-family="Times,serif" font-size="10.00">wasInformedBy</text>
</g>
<!-- n9 -->
<g id="node9" class="node">
<title>n9</title>
<g id="a_node9"><a xlink:href="provinspector:ParentPipelineVersionRevision" xlink:title="ParentPipelineVersionRevision">
<ellipse fill="#fffc87" stroke="#808080" cx="401" cy="-267.75" rx="125.56" ry="18"/>
<text text-anchor="middle" x="401" y="-262.7" font-family="Times,serif" font-size="14.00">ParentPipelineVersionRevision</text>
</a>
</g>
</g>
<!-- n1&#45;&gt;n9 -->
<g id="edge12" class="edge">
<title>n1&#45;&gt;n9</title>
<path fill="none" stroke="#8b0000" d="M119.12,-200.4C121.78,-201.12 124.42,-201.83 127,-202.5 193.04,-219.74 268.59,-237.3 323.61,-249.69"/>
<polygon fill="#8b0000" stroke="#8b0000" points="322.8,-253.32 333.33,-252.1 324.34,-246.49 322.8,-253.32"/>
<text text-anchor="middle" x="249.38" y="-222.25" font-family="Times,serif" font-size="10.00" fill="red">used</text>
</g>
<!-- n3 -->
<g id="node3" class="node">
<title>n3</title>
<g id="a_node3"><a xlink:href="provinspector:OperatorRevision" xlink:title="OperatorRevision">
<ellipse fill="#fffc87" stroke="#808080" cx="180" cy="-101.25" rx="76.43" ry="18"/>
<text text-anchor="middle" x="180" y="-96.2" font-family="Times,serif" font-size="14.00">OperatorRevision</text>
</a>
</g>
</g>
<!-- n3&#45;&gt;n1 -->
<g id="edge2" class="edge">
<title>n3&#45;&gt;n1</title>
<path fill="none" stroke="darkgreen" d="M140.65,-117.08C128.96,-122.47 116.54,-129.24 106.25,-137.25 98.8,-143.05 91.84,-150.53 85.95,-157.78"/>
<polygon fill="darkgreen" stroke="darkgreen" points="82.89,-155.01 79.56,-165.07 88.43,-159.29 82.89,-155.01"/>
<text text-anchor="middle" x="141.88" y="-139" font-family="Times,serif" font-size="10.00" fill="darkgreen">wasGeneratedBy</text>
</g>
<!-- n4 -->
<g id="node4" class="node">
<title>n4</title>
<g id="a_node4"><a xlink:href="provinspector:Operator" xlink:title="Operator">
<ellipse fill="#fffc87" stroke="#808080" cx="180" cy="-184.5" rx="43.67" ry="18"/>
<text text-anchor="middle" x="180" y="-179.45" font-family="Times,serif" font-size="14.00">Operator</text>
</a>
</g>
</g>
<!-- n3&#45;&gt;n4 -->
<g id="edge3" class="edge">
<title>n3&#45;&gt;n4</title>
<path fill="none" stroke="black" d="M180,-119.48C180,-129.86 180,-143.33 180,-155.23"/>
<polygon fill="black" stroke="black" points="176.5,-155.01 180,-165.01 183.5,-155.01 176.5,-155.01"/>
<text text-anchor="middle" x="213.75" y="-139" font-family="Times,serif" font-size="10.00">specializationOf</text>
</g>
<!-- n5 -->
<g id="node5" class="node">
<title>n5</title>
<g id="a_node5"><a xlink:href="provinspector:Parameter" xlink:title="Parameter">
<ellipse fill="#fffc87" stroke="#808080" cx="290" cy="-184.5" rx="48.79" ry="18"/>
<text text-anchor="middle" x="290" y="-179.45" font-family="Times,serif" font-size="14.00">Parameter</text>
</a>
</g>
</g>
<!-- n3&#45;&gt;n5 -->
<g id="edge4" class="edge">
<title>n3&#45;&gt;n5</title>
<path fill="none" stroke="black" d="M217.82,-117.34C229.07,-122.75 241.04,-129.46 251,-137.25 258.61,-143.21 265.79,-150.85 271.86,-158.21"/>
<polygon fill="black" stroke="black" points="269.51,-159.89 278.44,-165.59 275.02,-155.56 269.51,-159.89"/>
<text text-anchor="middle" x="288.38" y="-139" font-family="Times,serif" font-size="10.00">hadMember</text>
</g>
<!-- n6 -->
<g id="node6" class="node">
<title>n6</title>
<g id="a_node6"><a xlink:href="provinspector:PipelineVersionRevision" xlink:title="PipelineVersionRevision">
<ellipse fill="#fffc87" stroke="#808080" cx="328" cy="-18" rx="102.02" ry="18"/>
<text text-anchor="middle" x="328" y="-12.95" font-family="Times,serif" font-size="14.00">PipelineVersionRevision</text>
</a>
</g>
</g>
<!-- n6&#45;&gt;n1 -->
<g id="edge7" class="edge">
<title>n6&#45;&gt;n1</title>
<path fill="none" stroke="darkgreen" d="M236.05,-26C156.92,-34.16 51.46,-50.89 25.25,-83.25 7.17,-105.57 25.57,-136.69 43.55,-158.31"/>
<polygon fill="darkgreen" stroke="darkgreen" points="41.38,-160.14 50.6,-165.37 46.65,-155.54 41.38,-160.14"/>
<text text-anchor="middle" x="60.88" y="-97.38" font-family="Times,serif" font-size="10.00" fill="darkgreen">wasGeneratedBy</text>
</g>
<!-- n6&#45;&gt;n3 -->
<g id="edge5" class="edge">
<title>n6&#45;&gt;n3</title>
<path fill="none" stroke="black" d="M297.69,-35.64C274.85,-48.18 243.35,-65.47 218.68,-79.01"/>
<polygon fill="black" stroke="black" points="217.34,-76.31 210.26,-84.19 220.71,-82.44 217.34,-76.31"/>
<text text-anchor="middle" x="287.38" y="-55.75" font-family="Times,serif" font-size="10.00">hadMember</text>
</g>
<!-- n7 -->
<g id="node7" class="node">
<title>n7</title>
<g id="a_node7"><a xlink:href="provinspector:Connection" xlink:title="Connection">
<ellipse fill="#fffc87" stroke="#808080" cx="328" cy="-101.25" rx="53.4" ry="18"/>
<text text-anchor="middle" x="328" y="-96.2" font-family="Times,serif" font-size="14.00">Connection</text>
</a>
</g>
</g>
<!-- n6&#45;&gt;n7 -->
<g id="edge6" class="edge">
<title>n6&#45;&gt;n7</title>
<path fill="none" stroke="black" d="M328,-36.23C328,-46.61 328,-60.08 328,-71.98"/>
<polygon fill="black" stroke="black" points="324.5,-71.76 328,-81.76 331.5,-71.76 324.5,-71.76"/>
<text text-anchor="middle" x="352.38" y="-55.75" font-family="Times,serif" font-size="10.00">hadMember</text>
</g>
<!-- n8 -->
<g id="node8" class="node">
<title>n8</title>
<g id="a_node8"><a xlink:href="provinspector:PipelineVersion" xlink:title="PipelineVersion">
<ellipse fill="#fffc87" stroke="#808080" cx="469" cy="-101.25" rx="69.26" ry="18"/>
<text text-anchor="middle" x="469" y="-96.2" font-family="Times,serif" font-size="14.00">PipelineVersion</text>
</a>
</g>
</g>
<!-- n6&#45;&gt;n8 -->
<g id="edge8" class="edge">
<title>n6&#45;&gt;n8</title>
<path fill="none" stroke="black" d="M356.87,-35.64C378.68,-48.21 408.78,-65.55 432.29,-79.1"/>
<polygon fill="black" stroke="black" points="430.19,-82.5 440.6,-84.46 433.69,-76.44 430.19,-82.5"/>
<text text-anchor="middle" x="440.75" y="-55.75" font-family="Times,serif" font-size="10.00">specializationOf</text>
</g>
<!-- b1 -->
<g id="node10" class="node">
<title>b1</title>
<ellipse fill="gray" stroke="gray" cx="558" cy="-101.25" rx="1.8" ry="1.8"/>
</g>
<!-- n6&#45;&gt;b1 -->
<g id="edge9" class="edge">
<title>n6&#45;&gt;b1</title>
<path fill="none" stroke="black" d="M394.76,-32C420.99,-37.78 451.18,-45.26 478,-54 509.67,-64.32 521.5,-61.82 547,-83.25 552.6,-87.95 556.36,-96.24 557.58,-99.18"/>
<text text-anchor="middle" x="551.88" y="-55.75" font-family="Times,serif" font-size="10.00">wasDerivedFrom</text>
</g>
<!-- b1&#45;&gt;n9 -->
<g id="edge10" class="edge">
<title>b1&#45;&gt;n9</title>
<path fill="none" stroke="black" d="M557.47,-103.22C555.98,-105.89 551.58,-113.55 547,-119.25 509.44,-165.96 459.04,-214.25 428.35,-242.34"/>
<polygon fill="black" stroke="black" points="426.29,-239.39 421.24,-248.71 431,-244.57 426.29,-239.39"/>
</g>
<!-- ann1 -->
<g id="node11" class="node">
<title>ann1</title>
<polygon fill="none" stroke="gray" points="663.12,-36 548.88,-36 548.88,0 669.12,0 669.12,-30 663.12,-36"/>
<polyline fill="none" stroke="gray" points="663.12,-36 663.12,-30"/>
<polyline fill="none" stroke="gray" points="669.12,-30 663.12,-30"/>
<g id="a_node11_0"><a xlink:href="http://www.w3.org/ns/prov#type" xlink:title="&lt;TABLE&gt;">
<text text-anchor="start" x="558.88" y="-14.12" font-family="Times,serif" font-size="10.00">prov:type</text>
</a>
</g>
<g id="a_node11_1"><a xlink:href="http://www.w3.org/ns/prov#Revision" xlink:title="&lt;TABLE&gt;">
<text text-anchor="start" x="600.62" y="-14.12" font-family="Times,serif" font-size="10.00">prov:Revision</text>
</a>
</g>
</g>
<!-- ann1&#45;&gt;b1 -->
<g id="edge11" class="edge">
<title>ann1&#45;&gt;b1</title>
<path fill="none" stroke="gray" stroke-dasharray="5,2" d="M606.03,-36.15C603.92,-45.27 600.47,-56.4 595,-65.25 584.59,-82.1 564.07,-96.26 559.1,-99.54"/>
</g>
</g>
</svg>
