<?xml version="1.0" encoding="UTF-8" standalone="no"?>
<!DOCTYPE svg PUBLIC "-//W3C//DTD SVG 1.1//EN"
 "http://www.w3.org/Graphics/SVG/1.1/DTD/svg11.dtd">
<!-- Generated by graphviz version 8.1.0 (20230707.0739)
 -->
<!-- Title: G Pages: 1 -->
<svg width="657pt" height="460pt"
 viewBox="0.00 0.00 657.00 460.25" xmlns="http://www.w3.org/2000/svg" xmlns:xlink="http://www.w3.org/1999/xlink">
<g id="graph0" class="graph" transform="scale(1 1) rotate(0) translate(4 456.25)">
<title>G</title>
<polygon fill="white" stroke="none" points="-4,4 -4,-456.25 653,-456.25 653,4 -4,4"/>
<!-- n1 -->
<g id="node1" class="node">
<title>n1</title>
<g id="a_node1"><a xlink:href="provinspector:PipelineVersionCreation" xlink:title="PipelineVersionCreation">
<polygon fill="#9fb1fc" stroke="#0000ff" points="202.25,-202.5 54.25,-202.5 54.25,-166.5 202.25,-166.5 202.25,-202.5"/>
<text text-anchor="middle" x="128.25" y="-179.45" font-family="Times,serif" font-size="14.00">PipelineVersionCreation</text>
</a>
</g>
</g>
<!-- n2 -->
<g id="node2" class="node">
<title>n2</title>
<g id="a_node2"><a xlink:href="provinspector:ParentPipelineVersionCreation" xlink:title="ParentPipelineVersionCreation">
<polygon fill="#9fb1fc" stroke="#0000ff" points="182.5,-452.25 0,-452.25 0,-416.25 182.5,-416.25 182.5,-452.25"/>
<text text-anchor="middle" x="91.25" y="-429.2" font-family="Times,serif" font-size="14.00">ParentPipelineVersionCreation</text>
</a>
</g>
</g>
<!-- n1&#45;&gt;n2 -->
<g id="edge1" class="edge">
<title>n1&#45;&gt;n2</title>
<path fill="none" stroke="black" d="M123.79,-202.62C116.87,-229.96 103.66,-285.28 97.25,-333 94.01,-357.12 92.52,-384.75 91.83,-404.88"/>
<polygon fill="black" stroke="black" points="88.31,-404.69 91.52,-414.79 95.31,-404.9 88.31,-404.69"/>
<text text-anchor="middle" x="134.5" y="-305.5" font-family="Times,serif" font-size="10.00">wasInformedBy</text>
</g>
<!-- n6 -->
<g id="node6" class="node">
<title>n6</title>
<g id="a_node6"><a xlink:href="provinspector:ParentPipelineVersionRevision" xlink:title="ParentPipelineVersionRevision">
<ellipse fill="#fffc87" stroke="#808080" cx="361.25" cy="-267.75" rx="125.56" ry="18"/>
<text text-anchor="middle" x="361.25" y="-262.7" font-family="Times,serif" font-size="14.00">ParentPipelineVersionRevision</text>
</a>
</g>
</g>
<!-- n1&#45;&gt;n6 -->
<g id="edge6" class="edge">
<title>n1&#45;&gt;n6</title>
<path fill="none" stroke="#8b0000" d="M146.68,-202.91C158.16,-212.81 173.71,-224.63 189.5,-231.75 210.45,-241.2 233.99,-248.13 256.77,-253.19"/>
<polygon fill="#8b0000" stroke="#8b0000" points="256.01,-256.82 266.52,-255.46 257.46,-249.97 256.01,-256.82"/>
<text text-anchor="middle" x="199.62" y="-222.25" font-family="Times,serif" font-size="10.00" fill="red">used</text>
</g>
<!-- n8 -->
<g id="node8" class="node">
<title>n8</title>
<g id="a_node8"><a xlink:href="provinspector:ParentPipelineVersion" xlink:title="ParentPipelineVersion">
<ellipse fill="#fffc87" stroke="#808080" cx="199.25" cy="-351" rx="92.81" ry="18"/>
<text text-anchor="middle" x="199.25" y="-345.95" font-family="Times,serif" font-size="14.00">ParentPipelineVersion</text>
</a>
</g>
</g>
<!-- n1&#45;&gt;n8 -->
<g id="edge14" class="edge">
<title>n1&#45;&gt;n8</title>
<path fill="none" stroke="#8b0000" d="M135.71,-202.79C148.07,-231.43 172.87,-288.89 187.57,-322.94"/>
<polygon fill="#8b0000" stroke="#8b0000" points="184.6,-323.9 191.78,-331.69 191.03,-321.12 184.6,-323.9"/>
<text text-anchor="middle" x="180.62" y="-263.88" font-family="Times,serif" font-size="10.00" fill="red">used</text>
</g>
<!-- n3 -->
<g id="node3" class="node">
<title>n3</title>
<g id="a_node3"><a xlink:href="provinspector:PipelineVersionRevision" xlink:title="PipelineVersionRevision">
<ellipse fill="#fffc87" stroke="#808080" cx="363.25" cy="-18" rx="102.02" ry="18"/>
<text text-anchor="middle" x="363.25" y="-12.95" font-family="Times,serif" font-size="14.00">PipelineVersionRevision</text>
</a>
</g>
</g>
<!-- n3&#45;&gt;n1 -->
<g id="edge4" class="edge">
<title>n3&#45;&gt;n1</title>
<path fill="none" stroke="darkgreen" d="M282.78,-29.46C219.46,-39.53 138.66,-57.12 118.5,-83.25 102.62,-103.84 108.47,-134.32 116.17,-156.27"/>
<polygon fill="darkgreen" stroke="darkgreen" points="113.16,-157.19 120.01,-165.27 119.7,-154.68 113.16,-157.19"/>
<text text-anchor="middle" x="154.12" y="-97.38" font-family="Times,serif" font-size="10.00" fill="darkgreen">wasGeneratedBy</text>
</g>
<!-- n4 -->
<g id="node4" class="node">
<title>n4</title>
<g id="a_node4"><a xlink:href="provinspector:OperatorRevision" xlink:title="OperatorRevision">
<ellipse fill="#fffc87" stroke="#808080" cx="416.25" cy="-351" rx="76.43" ry="18"/>
<text text-anchor="middle" x="416.25" y="-345.95" font-family="Times,serif" font-size="14.00">OperatorRevision</text>
</a>
</g>
</g>
<!-- n3&#45;&gt;n4 -->
<g id="edge2" class="edge">
<title>n3&#45;&gt;n4</title>
<path fill="none" stroke="black" d="M437.91,-30.53C476.35,-41.16 515.25,-61.5 515.25,-100.25 515.25,-100.25 515.25,-100.25 515.25,-268.75 515.25,-290.23 515.68,-299.1 501.25,-315 494.63,-322.29 486.27,-328.1 477.39,-332.72"/>
<polygon fill="black" stroke="black" points="476.19,-329.88 468.6,-337.27 479.14,-336.23 476.19,-329.88"/>
<text text-anchor="middle" x="539.62" y="-180.62" font-family="Times,serif" font-size="10.00">hadMember</text>
</g>
<!-- n5 -->
<g id="node5" class="node">
<title>n5</title>
<g id="a_node5"><a xlink:href="provinspector:Connection" xlink:title="Connection">
<ellipse fill="#fffc87" stroke="#808080" cx="579.25" cy="-351" rx="53.4" ry="18"/>
<text text-anchor="middle" x="579.25" y="-345.95" font-family="Times,serif" font-size="14.00">Connection</text>
</a>
</g>
</g>
<!-- n3&#45;&gt;n5 -->
<g id="edge3" class="edge">
<title>n3&#45;&gt;n5</title>
<path fill="none" stroke="black" d="M439.54,-30.26C508.83,-42.7 600.25,-65.67 600.25,-100.25 600.25,-100.25 600.25,-100.25 600.25,-268.75 600.25,-287.22 595.1,-307.31 589.9,-322.9"/>
<polygon fill="black" stroke="black" points="586.4,-321.3 586.36,-331.9 593,-323.64 586.4,-321.3"/>
<text text-anchor="middle" x="624.62" y="-180.62" font-family="Times,serif" font-size="10.00">hadMember</text>
</g>
<!-- n3&#45;&gt;n6 -->
<g id="edge5" class="edge">
<title>n3&#45;&gt;n6</title>
<path fill="none" stroke="black" d="M363.11,-36.42C362.77,-78.62 361.9,-186.65 361.48,-238.35"/>
<polygon fill="black" stroke="black" points="357.97,-238.32 361.39,-248.35 364.97,-238.38 357.97,-238.32"/>
<text text-anchor="middle" x="397.12" y="-139" font-family="Times,serif" font-size="10.00">wasDerivedFrom</text>
</g>
<!-- n7 -->
<g id="node7" class="node">
<title>n7</title>
<g id="a_node7"><a xlink:href="provinspector:PipelineVersion" xlink:title="PipelineVersion">
<ellipse fill="#fffc87" stroke="#808080" cx="266.25" cy="-101.25" rx="69.26" ry="18"/>
<text text-anchor="middle" x="266.25" y="-96.2" font-family="Times,serif" font-size="14.00">PipelineVersion</text>
</a>
</g>
</g>
<!-- n3&#45;&gt;n7 -->
<g id="edge9" class="edge">
<title>n3&#45;&gt;n7</title>
<path fill="none" stroke="black" d="M310.79,-33.81C300.08,-38.81 289.68,-45.39 281.75,-54 276.93,-59.23 273.61,-66.01 271.31,-72.76"/>
<polygon fill="black" stroke="black" points="267.75,-71.54 268.49,-82.11 274.5,-73.38 267.75,-71.54"/>
<text text-anchor="middle" x="315" y="-55.75" font-family="Times,serif" font-size="10.00">specializationOf</text>
</g>
<!-- n6&#45;&gt;n4 -->
<g id="edge7" class="edge">
<title>n6&#45;&gt;n4</title>
<path fill="none" stroke="black" d="M364.62,-285.98C366.96,-295.13 370.72,-306.25 376.5,-315 379.14,-318.99 382.34,-322.81 385.78,-326.35"/>
<polygon fill="black" stroke="black" points="382.85,-328.35 392.54,-332.65 387.65,-323.25 382.85,-328.35"/>
<text text-anchor="middle" x="400.62" y="-305.5" font-family="Times,serif" font-size="10.00">hadMember</text>
</g>
<!-- n6&#45;&gt;n5 -->
<g id="edge8" class="edge">
<title>n6&#45;&gt;n5</title>
<path fill="none" stroke="black" d="M405.1,-285.09C442.61,-299.07 496.37,-319.11 534.21,-333.21"/>
<polygon fill="black" stroke="black" points="532.84,-336.81 543.43,-337.02 535.29,-330.25 532.84,-336.81"/>
<text text-anchor="middle" x="507.62" y="-305.5" font-family="Times,serif" font-size="10.00">hadMember</text>
</g>
<!-- n6&#45;&gt;n8 -->
<g id="edge12" class="edge">
<title>n6&#45;&gt;n8</title>
<path fill="none" stroke="black" d="M328.08,-285.39C302.93,-298 268.2,-315.42 241.14,-328.99"/>
<polygon fill="black" stroke="black" points="239.92,-326.19 232.55,-333.8 243.06,-332.45 239.92,-326.19"/>
<text text-anchor="middle" x="323" y="-305.5" font-family="Times,serif" font-size="10.00">specializationOf</text>
</g>
<!-- n7&#45;&gt;n1 -->
<g id="edge10" class="edge">
<title>n7&#45;&gt;n1</title>
<path fill="none" stroke="darkgreen" d="M212.77,-113.04C185.75,-119.43 156.58,-128.05 146.5,-137.25 140.93,-142.33 137.04,-149.33 134.32,-156.35"/>
<polygon fill="darkgreen" stroke="darkgreen" points="130.82,-154.82 131.14,-165.41 137.49,-156.94 130.82,-154.82"/>
<text text-anchor="middle" x="182.12" y="-139" font-family="Times,serif" font-size="10.00" fill="darkgreen">wasGeneratedBy</text>
</g>
<!-- n7&#45;&gt;n8 -->
<g id="edge13" class="edge">
<title>n7&#45;&gt;n8</title>
<path fill="none" stroke="black" d="M261.56,-119.51C254.08,-147.04 238.99,-202.62 226.25,-249.75 219.65,-274.15 212.18,-301.91 206.77,-322.02"/>
<polygon fill="black" stroke="black" points="203.14,-321.05 203.92,-331.61 209.9,-322.86 203.14,-321.05"/>
<text text-anchor="middle" x="269.12" y="-222.25" font-family="Times,serif" font-size="10.00">wasDerivedFrom</text>
</g>
<!-- n8&#45;&gt;n2 -->
<g id="edge11" class="edge">
<title>n8&#45;&gt;n2</title>
<path fill="none" stroke="darkgreen" d="M176.87,-368.84C161.3,-380.55 140.31,-396.34 123.01,-409.36"/>
<polygon fill="darkgreen" stroke="darkgreen" points="121.23,-407.07 115.34,-415.88 125.44,-412.66 121.23,-407.07"/>
<text text-anchor="middle" x="187.12" y="-388.75" font-family="Times,serif" font-size="10.00" fill="darkgreen">wasGeneratedBy</text>
</g>
</g>
</svg>
